{
  "version": "1.1.6",
  "modules": [
    {
      "id": 1,
      "plugin": "Core",
      "version": "1.1.6",
      "model": "AudioInterface",
      "params": [],
      "leftModuleId": 2,
      "rightModuleId": 173,
      "data": {
        "audio": {
          "driver": 5,
          "deviceName": "Apple Inc.: External Headphones",
          "offset": 0,
          "maxChannels": 8,
          "sampleRate": 44100,
          "blockSize": 256
        }
      },
      "pos": [
        40,
        0
      ]
    },
    {
      "id": 2,
      "plugin": "Fundamental",
      "version": "1.4.0",
      "model": "VCMixer",
      "params": [
        {
          "id": 0,
          "value": 0.0
        },
        {
          "id": 1,
          "value": 1.0
        },
        {
          "id": 2,
          "value": 1.0
        },
        {
          "id": 3,
          "value": 1.0
        },
        {
          "id": 4,
          "value": 1.0
        }
      ],
      "leftModuleId": 182,
      "rightModuleId": 1,
      "pos": [
        30,
        0
      ]
    },
    {
      "id": 7,
      "plugin": "Fundamental",
      "version": "1.4.0",
      "model": "Scope",
      "params": [
        {
          "id": 0,
          "value": 0.0
        },
        {
          "id": 1,
          "value": 0.0
        },
        {
          "id": 2,
          "value": 0.0
        },
        {
          "id": 3,
          "value": 0.0
        },
        {
          "id": 4,
          "value": 14.0
        },
        {
          "id": 5,
          "value": 0.0
        },
        {
          "id": 6,
          "value": 0.0
        },
        {
          "id": 7,
          "value": 0.0
        }
      ],
      "data": {
        "lissajous": 0,
        "external": 0
      },
      "pos": [
        0,
        1
      ]
    },
    {
      "id": 166,
      "plugin": "AudibleInstruments",
      "version": "1.2.0",
      "model": "Plaits",
      "params": [
        {
          "id": 0,
          "value": 0.0
        },
        {
          "id": 1,
          "value": 0.0
        },
        {
          "id": 2,
          "value": 2.42519665
        },
        {
          "id": 3,
          "value": 0.173228353
        },
        {
          "id": 4,
          "value": 0.976377964
        },
        {
          "id": 5,
          "value": 0.456692904
        },
        {
          "id": 6,
          "value": -0.937007904
        },
        {
          "id": 7,
          "value": 0.0708661079
        },
        {
          "id": 8,
          "value": 0.63779521
        },
        {
          "id": 9,
          "value": 0.157319725
        },
        {
          "id": 10,
          "value": 0.771721601
        }
      ],
      "leftModuleId": 171,
      "rightModuleId": 182,
      "data": {
        "lowCpu": false,
        "model": 13
      },
      "pos": [
        10,
        0
      ]
    },
    {
      "id": 171,
      "plugin": "Core",
      "version": "1.1.6",
      "model": "MIDI-Map",
      "params": [],
      "rightModuleId": 166,
      "data": {
        "maps": [
          {
            "cc": 0,
            "moduleId": 166,
            "paramId": 2
          },
          {
            "cc": 0,
            "moduleId": -1,
            "paramId": 0
          },
          {
            "cc": 127,
            "moduleId": 2,
            "paramId": 0
          },
          {
            "cc": 127,
            "moduleId": -1,
            "paramId": 0
          },
          {
            "cc": 1,
            "moduleId": 166,
            "paramId": 3
          },
          {
            "cc": 1,
            "moduleId": -1,
            "paramId": 0
          },
          {
            "cc": 126,
            "moduleId": 173,
            "paramId": 1
          },
          {
            "cc": 126,
            "moduleId": -1,
            "paramId": 0
          },
          {
            "cc": 2,
            "moduleId": 166,
            "paramId": 4
          },
          {
            "cc": 127,
            "moduleId": -1,
            "paramId": 0
          },
          {
            "cc": 3,
            "moduleId": 166,
            "paramId": 5
          },
          {
            "cc": 127,
            "moduleId": -1,
            "paramId": 0
          },
          {
            "cc": 4,
            "moduleId": 166,
            "paramId": 6
          },
          {
            "cc": 4,
            "moduleId": -1,
            "paramId": 0
          },
          {
            "cc": 5,
            "moduleId": 166,
            "paramId": 7
          },
          {
            "cc": 5,
            "moduleId": -1,
            "paramId": 0
          },
          {
            "cc": 6,
            "moduleId": 166,
            "paramId": 8
          },
          {
            "cc": 6,
            "moduleId": -1,
            "paramId": 0
          },
          {
            "cc": 7,
            "moduleId": 182,
            "paramId": 0
          },
          {
            "cc": 7,
            "moduleId": -1,
            "paramId": 0
          },
          {
            "cc": 8,
            "moduleId": 180,
            "paramId": 2
          },
          {
            "cc": 100,
            "moduleId": -1,
            "paramId": 0
          },
          {
            "cc": 100,
            "moduleId": -1,
            "paramId": 0
          },
          {
            "cc": 10,
            "moduleId": 166,
            "paramId": 1
          },
          {
            "cc": 100,
            "moduleId": 166,
            "paramId": 0
          },
          {
            "cc": -1,
            "moduleId": -1,
            "paramId": 0
          }
        ],
        "midi": {
          "driver": 1,
          "deviceName": "IAC Driver WebMIDI",
          "channel": -1
        }
      },
      "pos": [
        0,
        0
      ]
    },
    {
      "id": 173,
      "plugin": "VCV-Recorder",
      "version": "1.0.1",
      "model": "Recorder",
      "params": [
        {
          "id": 0,
          "value": 1.0
        },
        {
          "id": 1,
          "value": 0.0
        }
      ],
      "leftModuleId": 1,
      "data": {
        "format": "wav",
        "path": "/Users/lorenzominneci/Documents/Rack/Recorder Outputs/Thesis/ai_sounds.wav",
        "incrementPath": true,
        "sampleRate": 44100,
        "depth": 16,
        "bitRate": 320000
      },
      "pos": [
        50,
        0
      ]
    },
    {
      "id": 180,
      "plugin": "Fundamental",
      "version": "1.4.0",
      "model": "LFO",
      "params": [
        {
          "id": 0,
          "value": 1.0
        },
        {
          "id": 1,
          "value": 1.0
        },
        {
          "id": 2,
          "value": 5.6062994
        },
        {
          "id": 3,
          "value": 0.522463739
        },
        {
          "id": 4,
          "value": 0.648176253
        },
        {
          "id": 5,
          "value": 0.137353331
        },
        {
          "id": 6,
          "value": 0.816826761
        }
      ],
      "pos": [
        21,
        1
      ]
    },
    {
      "id": 182,
      "plugin": "Fundamental",
      "version": "1.4.0",
      "model": "8vert",
      "params": [
        {
          "id": 0,
          "value": 0.889763832
        },
        {
          "id": 1,
          "value": 0.0
        },
        {
          "id": 2,
          "value": 0.0
        },
        {
          "id": 3,
          "value": 0.0
        },
        {
          "id": 4,
          "value": 0.0
        },
        {
          "id": 5,
          "value": 0.0
        },
        {
          "id": 6,
          "value": 0.0
        },
        {
          "id": 7,
          "value": 0.0
        }
      ],
      "leftModuleId": 166,
      "rightModuleId": 2,
      "pos": [
        22,
        0
      ]
    }
  ],
  "cables": [
    {
      "id": 655,
      "outputModuleId": 2,
      "outputId": 0,
      "inputModuleId": 1,
      "inputId": 0,
      "color": "#0986ad"
    },
    {
      "id": 656,
      "outputModuleId": 2,
      "outputId": 0,
      "inputModuleId": 1,
      "inputId": 1,
      "color": "#c9b70e"
    },
    {
      "id": 661,
      "outputModuleId": 166,
      "outputId": 0,
      "inputModuleId": 7,
      "inputId": 0,
      "color": "#c9b70e"
    },
    {
      "id": 683,
      "outputModuleId": 2,
      "outputId": 0,
      "inputModuleId": 173,
      "inputId": 2,
      "color": "#0986ad"
    },
    {
      "id": 684,
      "outputModuleId": 2,
      "outputId": 0,
      "inputModuleId": 173,
      "inputId": 3,
      "color": "#c9b70e"
    },
    {
      "id": 679,
      "outputModuleId": 166,
      "outputId": 0,
      "inputModuleId": 2,
      "inputId": 1,
      "color": "#0986ad"
    },
    {
      "id": 690,
      "outputModuleId": 166,
      "outputId": 0,
      "inputModuleId": 2,
      "inputId": 2,
      "color": "#c9b70e"
    },
    {
      "id": 689,
      "outputModuleId": 180,
      "outputId": 0,
      "inputModuleId": 182,
      "inputId": 0,
      "color": "#0986ad"
    },
    {
      "id": 693,
      "outputModuleId": 182,
      "outputId": 0,
      "inputModuleId": 166,
      "inputId": 7,
      "color": "#0986ad"
    }
  ]
}